<?xml version="1.0" encoding="UTF-8"?>
<!DOCTYPE svg  PUBLIC '-//W3C//DTD SVG 1.1//EN'  'http://www.w3.org/Graphics/SVG/1.1/DTD/svg11.dtd'>
<svg enable-background="new 0 0 400 400" version="1.1" viewBox="0 0 400 400" xml:space="preserve" xmlns="http://www.w3.org/2000/svg">
<rect width="400" height="400" fill="#2E2E2E"/>
<path d="m225.5 202.3c-1.9-1.6-4.8-0.4-4.8 1.9 0 1.1-0.5 1.2-1.5 0.9-4.4-1.1-8.8-2.1-13.3-3.2-1-0.2-1.4-0.7-1.5-1.8l-1.2-9c-0.1-0.4-0.1-0.9-0.1-1.3 0-0.7 0.6-1.2 1.4-1.1 0.5 0.1 0.9 0.2 1.3 0.3 1.1 0.4 1.9 0.3 2.6-0.7 0.6-0.8-0.2-3.1-1.2-5.4-1.3-2.9-3-5.2-3.4-5.5-0.3-0.3-1.6-1.4-2.9-1.1-0.6 0.1-1.1 0.6-1.8 1.6-0.3 0.5-0.8 0.8-1.1 1.3-1 1.6-2.1 3.3-2.8 5-1 2.5 0.3 4.1 3 4 0.7 0 1.4-0.2 2.1-0.1 0.4 0.1 1 0.6 1.1 0.9 0.5 3.6 0.8 7.2 1.2 10.8 0.1 0.9-0.2 1.2-1.1 1.1-3.8-0.7-7.7-1.3-11.5-1.9-0.8-0.1-1.1-0.6-1.4-1.4-0.7-2.6-1.7-5.1-2.6-7.5-0.2-0.4-1-0.9-1.5-0.8-0.4 0-0.8 0.8-1.1 1.3-0.1 0.3 0 0.7 0.1 1 0.5 1.8 1 3.5 1.5 5.3v0.5c0 0.3-0.3 0.5-0.6 0.5-0.2 0-0.4 0-0.5-0.1-0.3-0.2-0.5-0.7-0.6-1.1l-3-8.1c-0.1-0.3-0.7-0.6-1-0.5s-0.6 0.6-0.6 1c-0.1 0.4 0.1 0.8 0.2 1.2 0.5 1.8 1.1 3.6 1.7 5.4 0.1 0.2 0.1 0.4 0.1 0.6 0 0.4-0.1 0.7-0.2 0.8s-0.9-0.8-1.7-1.9c-0.5-0.7-0.9-1.4-1.4-2.1-0.8-1.2-1.4-2.4-2.3-3.5-0.2-0.2-0.5-0.3-0.8-0.3-0.5-0.1-1 0.3-1 0.8-0.1 0.3-0.1 0.6 0 0.9 0.9 1.8 1.8 3.5 2.9 5.1 0.6 0.9 0.5 1.5-0.2 2.3-1.1 1.2-2.3 2.3-3.3 3.6-0.2 0.2-0.2 0.5-0.2 0.8 0 0.5 0.4 0.9 0.8 0.9 0.3 0 0.6 0 0.8-0.1 0.6-0.3 1-0.8 1.4-1.3 0.8-0.9 1.6-1.8 2.4-2.6 0.6-0.7 2.3-0.7 3 0.2 0.2 0.3-0.1 1.2-0.5 1.7-1 1.3-2.3 2.5-3.3 3.9-0.2 0.3-0.2 0.6-0.3 1 0 0.6 0.4 1 1 0.9 0.4-0.1 0.8-0.2 1-0.4 1.4-1.6 2.7-3.4 3.8-5.1 0.5-0.8 0.9-1.2 1.4-1.2 1.1 0 1.4 1.1 1 1.6-0.3 0.3-0.6 0.6-0.8 0.9-1 1.2-2.1 2.3-3 3.5-0.1 0.2-0.1 0.4-0.1 0.7 0 0.4 0.4 0.7 0.8 0.7 0.3 0 0.5 0 0.8-0.1s0.6-0.5 0.9-0.8c1.3-1.5 2.6-3.1 4-4.5 0.4-0.5 1.2-1 1.7-0.9 4.2 0.6 8.5 1.4 12.7 2.2 0.5 0.1 1.2 0.9 1.3 1.5 0.7 5.2 1.3 10.3 1.9 15.5 0 0.3-0.3 0.9-0.6 0.9-2.7 0.4-4.6 2.1-6.6 3.6-0.7 0.5-1.5 1.2-0.7 2.2 0.8 0.9 1.4 0 2-0.5 1.6-1.2 3.1-2.4 4.7-3.5 0.4-0.3 1.3-0.9 1.6 0.1 0.3 0.8 0.6 1.7-0.7 2.3-1.8 0.9-3.5 2.1-5.2 3.3-0.2 0.1-0.3 0.4-0.4 0.7-0.1 0.4 0.1 0.8 0.6 0.8 0.3 0 0.6 0 0.8-0.2 1.1-0.7 2.1-1.7 3.2-2.5 0.3-0.2 0.6-0.3 0.9-0.4 0.5-0.2 0.8 0.2 0.7 0.8-0.1 0.4-0.2 0.8-0.3 1.1s-0.5 0.5-0.7 0.7l-2.7 2.7c-0.5 0.5-1.2 1.2-0.4 1.8 0.3 0.2 1.3-0.2 1.7-0.6 0.8-0.6 1.3-1.5 2-2.2 1.1-1.3 2.1-1.4 3.4-0.2 0.5 0.5 0.9 1 1.3 1.6 0.7 1.1 1.4 2.2 2.2 3.3 0.2 0.3 0.9 0.6 1.2 0.4 0.3-0.1 0.5-0.8 0.5-1.2s-0.3-0.9-0.6-1.3c-1.2-1.5-2.4-2.9-3.5-4.4-0.2-0.3-0.4-0.5-0.5-0.8-0.3-0.5-0.3-0.9-0.2-1s0.5 0.1 0.9 0.4l0.6 0.6c0.9 0.9 1.7 1.8 2.6 2.6 0.6 0.5 1.4 1 1.9 0.2 0.2-0.4 0-1.5-0.4-1.8-1.5-1.3-3.1-2.4-4.8-3.4-0.6-0.4-1.1-0.9-1.3-1.5-0.3-1.1 0.6-1.6 1.1-1.2 0.3 0.3 0.6 0.5 0.9 0.8 1.6 1.4 3.1 2.8 4.8 4.1 0.2 0.2 0.5 0.2 0.9 0.2 0.5 0 0.9-0.4 0.9-0.9 0-0.4-0.1-0.7-0.2-0.8-2.5-2-5-3.9-7.7-5.6-0.9-0.6-1.5-1-1.6-2.1-0.8-4.7-1.5-9.4-2.3-14.1-0.2-1.1 0.3-1.3 1.2-1.1 3.6 0.9 7.2 1.7 10.8 2.6 3.2 0.9 3.3 0.1 2.8 4.1-0.2 1.4-0.3 2.9-0.2 4.3 0.1 1.5 1.3 2.5 2.5 2 1.4-0.5 2.8-1.2 4.1-2 1.3-0.7 2.5-1.7 3.9-2.4 1.8-1 2.1-2.1 1.2-4-1.4-3.1-3.7-5.1-6-7.2z" fill="#B2A17A"/>
<path d="m199.5 89.7c-0.8-0.2-1.6-0.1-2.4-0.2-1.8-0.1-4.2 0.9-5.9 1.3-2 0.4-4.2 0.9-5.9 2.1-0.1 0.1-0.4 0.1-0.6 0.1v-0.8c-0.4-2-0.3-2.3 1.2-2.6 0.1 0 0.1-0.1 0.1-0.1 2.3-1 4.5-2.2 7.1-2.7 1.6-0.3 3.2-0.4 4.8-0.4 1.1 0 3.2 0.4 4.1-0.5 1-1 3.6-3.7 3-5.2-0.4-1.1-2-1.7-3-2.2-1.5-0.7-3.7-2.4-5.4-1.3-4 2.6-7.3 6.4-11 9.3l-1.5 1.2c-0.6-0.7-0.8-1.4-1-2.1 0.2-0.4 0.4-0.7 0.7-1 1.7-2.2 3.4-4.4 5.3-6.3 1.7-1.7 3.8-3 5.5-4.7 0.9-0.9-0.1-4.7 0-6 0.1-1.7-1.4-1.6-2.6-1.3-1.7 0.4-3.4 0.7-5.1 1-1.1 0.2-1.6 0.6-1.8 1.7-0.9 4.5-2.2 8.9-2.9 13.4-0.1 0.3-0.1 0.8-0.7 0.9-0.9-1.1-2.1-1.6-3.4-2.1-0.9-0.4-0.8-0.4-0.7-1.5 0.3-2.3 0.6-4.7 1.1-7 0.4-1.8 2-4.3 1.8-6.1v-1.1c-0.9-0.9-3.3-3.8-4.6-3.8h-0.2c0 0.1 0 0.2-0.1 0.2-1.7 0.2-5.1 3.3-4.3 5.2 0.6 1.4 0.8 3.2 1.3 4.7 0.9 2.7 3.2 6.2 2.3 9.2-0.2 0.9-2.2 1.6-3 1.8-0.9 0.2-0.6 0.6-1.2-0.5-1.3-2.3-2.3-5.3-3.2-7.8-0.8-2.3-2.4-3-4.3-4.2-1.1-0.7-3.6-2.9-4.9-1.8-0.1 0.1-0.2 0.2-0.3 0.2-0.3 0.2-0.1 3.4-0.1 3.8 0 1.2 0.3 2.5 1.3 3.4 2.2 0.4 4 2.8 5.4 4.4s3.1 3.3 4.3 5.1c0.8 1.3 0.6 2.8-1.1 1.9-1.8-0.9-3.2-2.6-4.8-3.8-2.1-1.7-4.2-3.3-6.3-5-0.4-0.3-0.8-0.5-1.2-0.4-2.5 0-5.2-0.2-7.5 1.2-0.3 0.2-0.8 1-0.7 1.3 0.7 1.9 1.7 4.6 3.7 5.5 1.5 0.6 3.7 0.7 5.3 1 3.5 0.7 7 1.5 10.3 3 0.5 0.2 1 0.6 1.3 1 0.1 1.1-0.4 2.1-0.2 3.1v0.2c-0.2 0.1-0.2 0.4-0.6 0.2-2.6-1.2-5-2.5-7.5-3.7-1.6-0.7-3.7-1.3-4.9-2.5s-3.4 0.2-4.7 0.7c-1.5 0.5-5.7 1.5-4.3 3.7 1.2 1.8 3.6 2.4 5.3 3.5 0.7 0.5 1.5 0.9 2.5 0.8 4.1-0.3 8.4-0.3 12.6-0.2 0.6 0 1.3 0.1 1.6 0.7v1.8c0 0.9-6.4 2.4-7.2 2.5-2.2 0.4-4.4 0.7-6.6 1.3-0.8 0.3-1.5 0.6-2 1-0.7 0.5-1.2 1.3-1.7 2.3-0.8 1.4-1.8 3.1-2 4.7-0.1 0.6 0.2 1.3 0.7 1.3 1.7 0.1 3.4 0.6 5.1 0.6h0.3c0.7 0.1 1.4 0 1.8-0.4 3.4-2.7 6.5-5.7 9.8-8.3 0.5-0.4 1-0.9 1.5-1.3 1-0.7 1.8 0.6 1.2 1.5-0.6 1-1.3 2-2 2.9-1.4 1.9-3 3.7-4.7 5.4l-2.4 2.4c-0.2 0.3-0.5 0.6-0.6 0.9-0.7 2.3-0.1 5.3-1.7 7.3-0.4 0.4-0.1 1.1 0.5 1.3 2.2 0.5 6.6-1.8 7.3-3.9 1.3-4.2 3.2-8.2 3.9-12.7 0.1-0.5 0.2-1.2 0.8-1.5 1.1 1.1 1.9 2.2 3.6 2.5 1.2 0.2 0 3.2-0.2 3.9-0.8 2.6-1.1 5.3-2.1 7.9-0.4 1.1-0.5 2.2-0.7 3.3-0.3 1.3 1.8 7.6 3.6 6.6 1.5-0.8 3.2-3.6 3.8-5.2 0.5-1.2 0.2-2.8 0-4.1-1.1-0.8-1.3-4.5-1.5-5.7-0.2-1.7-0.7-4.3-0.3-6 0.3-1.1 1.3-1.2 2.2-1.7 0.8-0.4 1.8-1.4 2.8-1.3 0.7 0.1 1.6 8.4 1.7 9.2 0.2 1.7 0 3.6 0.9 5.1 0.5 0.9 2.6 1.5 3.5 1.8 1.3 0.6 2.9 1.1 4.3 0.9 0.3-0.4 0.5-0.7 0.5-1.2-0.1-2 0.7-6.5-1.3-7.8-3-2-5-5-7-8-0.4-0.6-0.9-1.3-1.1-1.9 0 0.1 2.1 0.9 2.3 1.1 0.8 0.5 1.5 1 2.2 1.5 1.3 1 2.6 2 3.8 3.1 1 0.9 1.6 1.7 3 1.9 1.6 0.3 3.1 0.4 4.7 0.9 1.3 0.4 4.1 2.2 4.8-0.2 0.3-1.3-1.4-3.8-2-5-1.9-4-5.4-4.4-9.2-5.5-2.3-0.6-5.2-0.7-7.3-1.7-0.8-0.4-0.6-0.2-0.8-1.1-0.1-0.6 0-1.4 0.1-2 0.2-1.1 0.6-2.6 2-2 2.8 1 6.1 1.4 9 2.1 0.7 0.2 1.4 0.3 2.1 0.5 2.3 0.7 4.6-1.6 6.4-2.7 1.2-0.7 3.4-1.4 2.3-3.2-0.6-1.7-4.3-2.5-6.1-3zm-18 7.7c0.1 0.5-0.2 1-0.3 1.5s-0.3 0.9-0.5 1.4c-0.3 0.8-1 1.3-1.5 2-0.4 0.6-1 1-1.5 1.6-0.7 0.7-1.5 1-2.4 1.3-0.3 0.1-1.1-0.4-1.3-0.7-0.6-1-1-2.2-1.4-3.3-0.2-0.5-0.2-1.2-0.2-1.8v-3.7c0-0.8 0.1-1.7 0-2.5-0.1-1.1 0.2-2.1 0.2-3.2 0-0.4 0.2-0.8 0.2-1.2s0.3-0.8 0.4-1.2 0.3-0.7 0.4-1.1c0.3-0.8 1-1.3 1.5-1.8 0.2-0.2 0.5-0.2 0.8-0.3 1.2-0.2 2.1 0.4 3 1.1 1.2 0.9 1.8 2.3 2.1 3.8 0.3 1.2 0.6 2.5 0.4 3.8-0.1 1 0.2 1.9 0.2 2.9 0.1 0.4-0.2 0.8-0.1 1.4z" fill="#B2A17A"/>
<path d="m107.2 132.2c-0.5-0.4-0.3-0.8-0.3-1.1 0-0.4 0.3-0.9-0.3-1.2-0.1 0-0.1-0.3-0.1-0.4 0.2-0.5-0.3-1 0.2-1.4 0.1-0.1 0-0.3-0.2-0.4-0.1 0-0.1-0.2-0.1-0.2 0.5-0.3 0.1-0.6-0.1-0.7-0.5-0.2-0.7-0.7-1.1-1s-0.9-0.5-1.3-0.7c-0.1 0-0.1-0.2-0.2-0.4 0.4 0.1 0.8 0.2 1.1 0.3 0-0.6-0.6-0.3-0.8-0.6-0.3-0.5-0.7-0.6-1.1-0.8-0.6-0.4-1.5-0.6-1.7-1.5 0-0.1-0.1-0.2-0.2-0.2-0.8-0.5-1.5-1-2.1-1.7 0-0.1 0.1-0.3 0.1-0.4-0.7-0.6-1.3-1.3-2.1-1.9-1.1-0.9-1.9-2-3.1-2.8-0.1-0.1-0.1-0.3-0.2-0.4 0.4 0.2 0.7 0.3 1.1 0.4-0.5-0.7-1.1-1.2-1.6-1.7-0.5-0.6-1.4-0.8-1.7-1.7 0.3 0.1 0.5 0.1 0.8 0.2 0-0.2 0-0.5-0.1-0.7s-0.3-0.3-0.4-0.5-0.4-0.4-0.4-0.5c0-1.1-0.8-1.5-1.5-2-0.8-0.6-1.7-1.2-2.5-1.8-0.7-0.5-1.3-1-1.2-2 0.1-0.1 0.3-0.2 0.5-0.3-0.1-0.2-0.2-0.3-0.3-0.5-0.1-0.7-0.4-1.4-1-1.9-0.2-0.2-0.3-0.6-0.4-0.9 0-0.1 0-0.4-0.1-0.4-0.5-0.2-0.4-0.6-0.5-1-0.4-0.8-0.5-1.6-0.6-2.4 0-0.2-0.1-0.3-0.3-0.4-0.1 0-0.1-0.3 0-0.3 0.1-0.1 0.2-0.1 0.4-0.2-0.5-1-0.5-1-0.8-1.1-1.2-0.4-1.6-1.5-1.8-2.5-0.1-0.3-0.1-0.5-0.3-0.6-0.1-0.1-0.3-0.2-0.4-0.4-0.6-1.3-1.3-2.6-1.9-3.8-0.1-0.3-0.2-0.5-0.2-0.8 0-0.2 0.2-0.3 0.4-0.2 0.1 0 0.2 0.2 0.4 0.4-1.7-3.7-1.5-3-3.3-3.5 0 0.2-0.1 0.5-0.1 0.7-0.2-0.1-0.4-0.1-0.5-0.1 0-0.3 0.1-0.6 0-0.8-0.3-0.4-0.3-0.9-0.3-1.4 0-1.2 0.9-8.4-0.2-8.8-0.1 0-0.2 0.1-0.2 0.1-0.3 1.1-0.6 2.1-0.7 3.3-0.1 1.8-0.3 3.7-0.4 5.4-0.7 0.5-1.3 1-1.9 1.4-0.1 0-0.1 0.1-0.1 0.2-0.2 0.4-0.4 0.8-0.5 1.2-0.5 1.8-1.2 3.5-1.4 5.4-0.1 0.7-0.3 1.4-0.4 2.1v1c0.1 0.3 0.4 0.3 0.6 0.4l0.9 0.9c0.1 0.1 0.2 0.3 0.2 0.5-0.1 1 0.1 2.1-0.1 3.1-0.1 0.9 0.4 1.4 0.7 2 0.6 0.2 0.5 0.6 0.6 1.1 0.1 0.8 0.2 0.8 0.9 1.4 0.4 0.3 0.6 0.6 0.6 1.1 0 0.7 0.1 1.5 0.3 2.2 0.1 0.3 0.1 0.5 0.4 0.8 0.5 0.4 0.6 1.3 1.3 1.7v0.2c0.2 0.6 0 1.3 0.8 1.7 0.2 0.1 0.2 0.4 0.3 0.6s0.2 0.5 0.3 0.6c0.7 0.3 0.5 0.9 0.6 1.5 0 0.7 0.1 1.5 0.7 2 0.3 0.1 0.7 0.2 1 0.3 0.5 0.2 0.9 0.5 0.8 1.1-0.1 0.7 0.3 1.2 0.7 1.6 0.5 0.5 0.9 0.9 0.9 1.7 0 0.1 0.1 0.3 0.2 0.4 0.6 0.1 0.9 0.6 1.3 0.9 0.5 0.3 0.8 0.6 0.9 1.1v0.2c0.8 0.2 1 1.3 2 1.2 0.3 0.6 0.8 1.2 0.9 1.8 0.1 0.8 0.7 1.3 0.9 2 0.5 0.1 0.9 0.4 1.3 0.3 0.5-0.1 0.9 0.2 1.3 0.4 0.5 0.2 1 0.6 1.1 1.1 0 0.4 0.2 0.7 0.4 1 0.5 1 1.1 1.9 1.6 2.9s1.4 1.4 2.4 1.7c0.8 0.2 1.6 0.3 2.1 0.9 0.3 0.3 0.7 0.6 1 0.8 0.9 0.6 1.8 1 2.8 0.3 0.1-0.1 0.3-0.1 0.5-0.1 0.8 0 1.6 0 2.4 0.2 0.9 0.2 1.7 0.1 2.3-0.5-0.2-0.5-0.2-0.5 0.1-0.9-0.8-0.4-0.9-1.3-1.3-1.8 0.3-0.4 0.5-0.7 0.7-1 0.1-0.5 0.2-0.5 0.6-0.5z" fill="#B2A17A"/>
<path d="m340.7 200.1c0.4-1.2 0.7-2.3 1-3.5 0.2-0.8 0.3-1.7 0.8-2.4 0.1-0.1 0-0.4 0.1-0.6s0.1-0.6 0.2-0.7c0.5-0.2 0.7-0.6 0.8-1 0.3-1 1.1-1.6 1.8-2.2l0.9-0.6c0.6-0.4 1.1-1.1 1.1-1.7 0-0.7 0.4-1.1 0.5-1.7 0.1-0.5 0.5-0.9 0.5-1.5s0.4-1.1 0.7-1.6c0.2-0.4 0.6-0.6 0.8-1 1-1.6 1.3-3.4 1.7-5.1 0.4-1.9 0.6-3.9 1.5-5.7 0.1-0.2 0.1-0.6 0.1-0.8 0.4-1.2 0-2.4-0.1-3.5 0-1.1-0.5-1.8-1.5-2.2-0.5-0.2-0.7-0.5-0.7-0.9-0.1-0.5 0-0.9 0-1.4 0.1-1 0.2-2.1 0.2-3.1 0.1-1.6-0.3-6.2-1.9-6.8-0.5 2.8 1 5.9-0.8 8.6-0.7 0-1.4 0.2-2 0.7-0.8-0.3-1 0.6-1.4 0.9-0.3 0.2-0.5 0.7-0.8 1-0.8 0.8-1.6 1.6-2.3 2.5-1.2 1.4-1.2 1.2-0.7 2.7 0 0.1 0.1 0.2 0.1 0.3-0.7 1-0.8 2.3-1.8 3-0.8 1.7-1.6 3.3-2.4 5-0.1 0.2 0 0.7-0.1 0.8-0.5 0.2-0.5 0.6-0.7 0.9-0.4 0.7-0.7 1.3-1.5 1.8-0.8 0.4-0.9 0.7-0.8 1.7 0.1 0.7 0.3 1.4-0.6 1.9-0.2 0.1-0.4 0.5-0.3 0.7 0.3 1-0.5 1.2-1.1 1.6-1.5 0.8-2.4 1.9-3.1 3.6-0.1 0.3-0.4 0.6-0.6 0.9-0.1 0.2-0.3 0.3-0.4 0.6-0.2 0.4-0.4 0.9-0.4 1.4 0 0.4-0.6 0.7-0.8 1.1-0.1 0.1 0 0.4-0.1 0.6-0.1 0.7-0.3 1.3-0.5 1.9-0.8 0.3-0.7 1.1-1.1 1.7 0.3 0.7-0.4 0.9-0.7 1.2-0.1 0.1-0.3 0.2-0.4 0.4-0.8 1-1.2 2.3-2.4 3-0.2 0.1-0.3 0.6-0.3 0.9-0.1 0.8-0.3 1.5-1.2 1.9-0.4 0.1-0.8 0.4-0.7 1 0 0.2-0.2 0.6-0.6 0.8-1 0.6-1.3 1.7-2.2 2.4 0.4 0.7-0.5 0.7-0.6 1.1-0.1 0.7-0.8 0.6-1.2 1-0.2 0.3-0.7 0.3-1.1 0.5-0.8 0.4-1.1 0.9-0.9 1.7 0.1 0.5 0 0.9-0.3 1.1-0.6 0.4-0.7 1.3-1.6 1.4-0.1 0-0.2 0.4-0.4 0.7 0.3-0.1 0.4-0.1 0.6-0.2-0.1 0.4 0 1-0.2 1.1-0.6 0.4-0.7 1.1-1 1.6-0.2 0.4 0.1 1.1-0.6 1.3-0.1 0.5-0.1 1.1-0.4 1.5s-0.4 1-0.9 1.3c-0.2 0.1-0.2 0.6-0.3 0.9 0.6 0.1 0.3 0.6 0.3 0.8-0.1 0.9 0.4 1.4 1.1 1.9 0.2 0.1 0.4 0.3 0.6 0.5 0.3-0.2 0.7-0.4 1-0.4 0.5 0 0.7-0.3 1-0.5 0.5-0.4 0.6-0.4 1.4-0.1 0.1 0 0.2 0.1 0.3 0.1 0.6-0.3 1.4-0.4 1.9-0.8 0.4-0.4 0.8-0.5 1.3-0.7 0.5 0.2 0.9 0.4 1.3 0.6 0.4-0.1 0.8-0.1 1-0.4 0.4-0.3 0.7-0.8 1-1.3 0.7-0.9 1.3-2 2.4-2.4 1-0.4 1.4-1.1 2-1.8 0.7-1 1.4-1.8 2.6-2.1 0.6-0.2 1.2-0.4 1.6-0.5 0.4-0.5 0.7-1 1.1-1.3 1-0.9 1.9-1.8 2.4-3 0.6-1.3 1.4-2.5 2.1-3.8 0-0.1 0.1-0.2 0.2-0.2 0.5-0.3 0.7-0.7 0.6-1.2 0-0.2 0.1-0.6 0.2-0.7 0.6-0.3 0.9-1.1 1.3-1.1 0.5 0.2 0.8 0.5 0.9 0.4 1.6-0.5 2.4-1.6 2.8-3.3 0.2-1 0.3-2.1 0.7-3.2z" fill="#B2A17A"/>
<path d="m334 76.9c-5.6-1-12.3 3.9-16.6 6.9-2.7 1.9-10 5.1-7.9 9.1 2.4 4.8 11-2 13.5-3.2 4.7-2.2 5.8-5 10.2-0.2 3.8 4.2 6.4 10.5 4 16-2.2 5.2-8.4 5.8-13.5 5.8-4.6 0-4.6-7.7-0.7-9.2 3.8-1.4 8.8 7.1 10.2 0 1.1-5.7-6.7-6.8-10.7-5.7-11.2 3-11.4 10.6-6.8 20.3 2 4.1 7.5 4 11.2 3.4 5.9-1.1 11-1.9 16.9-2.4 12.2-1 2-23.1-0.8-29.1-1.7-3.6-4.4-10.9-9-11.7z" fill="#B2A17A"/>
<path d="m138.4 235.4c-1.1-0.2-2.2-0.4-3.3-0.3-1.8 0.1-3.7 0.2-5.4 0.3-0.6-0.6-1.1-1.2-1.6-1.7 0 0-0.1-0.1-0.2-0.1-0.4-0.1-0.8-0.3-1.3-0.4-1.8-0.2-3.6-0.8-5.5-0.7-0.7 0-1.4-0.1-2.1-0.2-0.3 0-0.6 0-0.9 0.1s-0.2 0.5-0.3 0.7c-0.2 0.4-0.5 0.7-0.8 1-0.1 0.1-0.3 0.2-0.5 0.2-1 0-2.1 0.3-3.1 0.3-0.9 0-1.3 0.6-1.9 0.9-0.1 0.6-0.6 0.6-1 0.7-0.8 0.2-0.8 0.3-1.3 1-0.2 0.4-0.5 0.6-1 0.7-0.7 0.1-1.5 0.3-2.2 0.6-0.3 0.1-0.5 0.1-0.7 0.5-0.4 0.6-1.2 0.7-1.5 1.5h-0.2c-0.6 0.2-1.3 0.2-1.6 1-0.1 0.2-0.4 0.3-0.5 0.4-0.2 0.1-0.5 0.2-0.5 0.4-0.3 0.7-0.8 0.7-1.4 0.7-0.7 0.1-1.4 0.2-1.9 0.9-0.1 0.3-0.1 0.7-0.2 1-0.2 0.5-0.4 0.9-1 0.9-0.7 0-1.2 0.4-1.5 0.9-0.4 0.5-0.8 1-1.6 1.1-0.1 0-0.3 0.2-0.3 0.3-0.1 0.6-0.5 1-0.7 1.4-0.2 0.6-0.5 0.9-1 1h-0.2c-0.1 0.8-1.2 1.2-1 2.1-0.6 0.4-1.1 1-1.6 1.1-0.8 0.2-1.2 0.8-1.9 1.1-0.1 0.5-0.3 0.9-0.2 1.3 0.1 0.5-0.1 0.9-0.3 1.3-0.2 0.5-0.5 1.1-1 1.2-0.4 0.1-0.7 0.3-1 0.5-0.9 0.6-1.8 1.3-2.7 1.9-1 0.6-1.2 1.6-1.3 2.6-0.1 0.8-0.1 1.6-0.7 2.2-0.3 0.3-0.5 0.7-0.7 1.1-0.5 0.9-0.7 1.9 0.1 2.8 0.1 0.1 0.1 0.3 0.1 0.5 0 0.8 0.2 1.6 0.1 2.4-0.1 0.9 0.1 1.7 0.8 2.3 0.5-0.3 0.5-0.3 0.9 0 0.3-0.9 1.2-1.1 1.6-1.5 0.4 0.2 0.8 0.4 1.1 0.5 0 0.1 0 0.3 0.1 0.7 0.3-0.5 0.7-0.4 1.1-0.4 0.4-0.1 0.9 0.2 1.2-0.4 0-0.1 0.3-0.2 0.4-0.1 0.5 0.2 0.9-0.4 1.4 0 0.1 0.1 0.3 0 0.4-0.2 0-0.1 0.2-0.1 0.2-0.1 0.3 0.4 0.6 0.1 0.7-0.2 0.1-0.5 0.6-0.8 0.9-1.2 0.2-0.4 0.4-0.9 0.6-1.4 0-0.1 0.2-0.1 0.4-0.3-0.1 0.4-0.1 0.8-0.2 1.1 0.6-0.1 0.3-0.6 0.5-0.8 0.4-0.3 0.5-0.8 0.6-1.2 0.3-0.7 0.4-1.5 1.2-1.9 0.1 0 0.2-0.1 0.2-0.2 0.4-0.9 0.8-1.6 1.5-2.3 0.1 0 0.3 0.1 0.5 0.1 0.6-0.8 1.1-1.5 1.6-2.3 0.7-1.2 1.8-2.1 2.4-3.4 0.1-0.1 0.3-0.2 0.4-0.3-0.1 0.4-0.2 0.8-0.3 1.1 0.6-0.5 1-1.2 1.5-1.8s0.7-1.5 1.5-1.9c0 0.3-0.1 0.5-0.1 0.8 0.2 0 0.5 0 0.7-0.1s0.3-0.3 0.4-0.5c0.2-0.2 0.3-0.4 0.5-0.4 1.1-0.1 1.4-1 1.8-1.7 0.5-0.9 1-1.8 1.4-2.7 0.4-0.8 0.9-1.4 1.9-1.4 0.1 0.1 0.2 0.3 0.4 0.4 0.2-0.1 0.3-0.3 0.5-0.3 0.7-0.2 1.3-0.5 1.7-1.2 0.1-0.2 0.6-0.3 0.8-0.5 0.1-0.1 0.4-0.1 0.4-0.2 0.1-0.5 0.6-0.4 0.9-0.6 0.7-0.4 1.5-0.7 2.3-0.9 0.2-0.1 0.3-0.1 0.4-0.3 0-0.1 0.3-0.1 0.3-0.1 0.1 0.1 0.1 0.2 0.2 0.3 0.9-0.6 1-0.6 1-0.9 0.3-1.3 1.3-1.8 2.3-2.1 0.3-0.1 0.5-0.1 0.6-0.4 0.1-0.2 0.2-0.3 0.4-0.4 1.2-0.8 2.4-1.6 3.6-2.3 0.2-0.1 0.5-0.2 0.8-0.3 0.2 0 0.3 0.1 0.3 0.4 0 0.1-0.1 0.2-0.3 0.4 3.5-2.2 2.7-1.9 3-3.7h-0.7c0-0.2 0.1-0.4 0.1-0.5 0.3 0 0.6 0 0.8-0.1 0.4-0.3 0.8-0.4 1.3-0.4 1.2-0.1 8.5-0.1 8.7-1.2-0.2-0.1-0.3-0.2-0.3-0.2z" fill="#B2A17A"/>
<path d="m316.5 44.3c-0.4-0.1-1 0-1.4 0.2-1.8 0.7-3.5 1.4-5.2 2.1-0.3 0.1-0.6 0.2-0.9 0.2-0.5 0.1-1 0-1.1-0.1-0.1-0.2 0.2-0.5 0.6-0.7 0.2-0.1 0.5-0.3 0.7-0.4 1.1-0.6 2.2-1.1 3.2-1.7 0.7-0.4 1.4-1 0.8-1.7-0.3-0.3-1.4-0.4-1.8-0.2-1.6 1.1-3.2 2.2-4.7 3.5-0.5 0.5-1.2 0.7-1.8 0.7-1.1 0-1.4-1.1-0.8-1.4 0.3-0.2 0.7-0.4 1-0.6 1.8-1.1 3.6-2.1 5.3-3.3 0.2-0.1 0.3-0.4 0.4-0.8 0.1-0.5-0.1-1-0.6-1.1-0.4-0.1-0.7-0.2-0.9 0-2.6 1.8-5.3 3.6-7.7 5.7-0.8 0.7-1.4 1.1-2.5 1-4.7-0.7-9.4-1.3-14.1-2-1.1-0.2-1.2-0.7-0.7-1.5 1.9-3.2 3.7-6.4 5.7-9.6 1.8-2.8 1-3.1 4.7-1.5 1.3 0.6 2.7 1.1 4 1.5 1.4 0.4 2.7-0.5 2.7-1.7-0.1-1.5-0.3-3-0.6-4.5s-0.8-2.9-1.2-4.4c-0.4-2-1.4-2.7-3.5-2.3-3.1 0.5-5.8 2-8.4 3.6-2.1 1.3-1.8 4.5 0.3 5.2 1 0.3 1 0.9 0.5 1.7-2.4 3.9-4.7 7.8-7 11.7-0.5 0.9-1.1 1.1-2.2 0.9-3-0.6-6-1-8.9-1.5-0.4-0.1-0.9-0.2-1.3-0.3-0.7-0.2-1-1-0.6-1.6 0.2-0.4 0.4-0.8 0.7-1.2 0.7-0.9 0.8-1.7 0.1-2.7-0.6-0.8-3.1-0.8-5.5-0.5-3.1 0.4-5.9 1.3-6.3 1.6-0.4 0.2-1.8 1.1-1.9 2.4 0 0.6 0.3 1.2 1 2.2 0.3 0.5 0.6 1 0.9 1.4 1.3 1.4 2.5 3 3.9 4.2 2.1 1.7 4 1 4.7-1.6 0.2-0.7 0.2-1.4 0.6-2 0.2-0.4 0.8-0.8 1.2-0.7 3.6 0.6 7.1 1.4 10.7 2.1 0.9 0.2 1.1 0.6 0.7 1.4-1.8 3.5-3.5 6.9-5.3 10.4-0.4 0.8-0.9 0.9-1.8 0.9-2.7-0.1-5.3 0.1-8 0.3-0.5 0-1.1 0.7-1.3 1.2-0.1 0.4 0.5 1 0.9 1.4 0.2 0.2 0.7 0.2 1 0.2 1.8 0.1 3.7 0.1 5.5 0.2 0.2 0 0.3 0.1 0.5 0.1 0.2 0.1 0.4 0.4 0.3 0.7-0.1 0.2-0.1 0.3-0.3 0.4-0.3 0.2-0.8 0.2-1.2 0.3-2.9 0.2-5.7 0.3-8.6 0.5-0.3 0-0.8 0.5-0.8 0.8s0.4 0.7 0.7 0.9 0.8 0.2 1.1 0.2h5.6c0.2 0 0.4 0 0.6 0.1 0.3 0.1 0.6 0.3 0.7 0.4s-1 0.6-2.3 1c-0.8 0.2-1.6 0.5-2.4 0.7-1.3 0.4-2.7 0.6-4 1.1-0.2 0.1-0.4 0.4-0.5 0.7-0.2 0.5 0 1 0.4 1.2 0.3 0.1 0.6 0.3 0.9 0.2 1.9-0.3 3.9-0.7 5.8-1.2 1.1-0.3 1.6 0 2.1 0.9 0.8 1.4 1.5 2.9 2.5 4.2 0.1 0.2 0.4 0.3 0.7 0.4 0.4 0.1 0.9-0.1 1.1-0.5 0.1-0.3 0.2-0.6 0.1-0.8-0.1-0.6-0.5-1.2-0.8-1.8l-1.8-3c-0.5-0.8 0.1-2.4 1.1-2.8 0.3-0.1 1.1 0.5 1.5 0.9 1 1.4 1.7 2.9 2.8 4.3 0.2 0.3 0.5 0.4 0.9 0.6 0.6 0.2 1.1-0.1 1.1-0.7 0-0.4 0.1-0.8-0.1-1-1.1-1.8-2.4-3.5-3.8-5.2-0.6-0.8-0.9-1.2-0.8-1.7 0.3-1 1.4-1.1 1.8-0.5 0.2 0.4 0.4 0.7 0.6 1.1 0.8 1.3 1.6 2.6 2.5 3.9 0.1 0.2 0.4 0.3 0.6 0.3 0.4 0.1 0.8-0.2 0.9-0.6 0.1-0.3 0.1-0.5 0.1-0.8 0-0.4-0.3-0.7-0.5-1.1-1-1.7-2.2-3.4-3.1-5.2-0.3-0.5-0.6-1.4-0.3-1.9 1.9-3.8 3.8-7.7 5.9-11.4 0.3-0.5 1.3-0.9 1.8-0.8 5.1 0.8 10.2 1.8 15.4 2.8 0.3 0.1 0.7 0.6 0.7 0.8-0.5 2.7 0.6 5 1.5 7.4 0.3 0.8 0.7 1.8 1.9 1.3 1.1-0.5 0.4-1.3 0.1-2-0.6-1.9-1.3-3.7-1.9-5.6-0.1-0.5-0.5-1.5 0.6-1.5 0.8 0 1.8-0.1 2 1.3 0.3 2 1 4 1.6 5.9 0.1 0.2 0.3 0.4 0.6 0.6 0.4 0.3 0.8 0.1 0.9-0.3 0.1-0.3 0.2-0.6 0.1-0.8-0.4-1.3-1-2.5-1.4-3.8-0.1-0.3-0.1-0.7-0.1-1 0-0.6 0.4-0.8 1-0.4 0.3 0.2 0.7 0.4 1 0.7 0.2 0.2 0.3 0.6 0.5 0.9 0.6 1.1 1.2 2.3 1.8 3.4 0.4 0.6 0.8 1.5 1.7 0.9 0.3-0.2 0.2-1.3-0.1-1.8-0.4-0.9-1-1.7-1.5-2.6-0.9-1.5-0.7-2.4 0.8-3.3 0.6-0.4 1.3-0.6 1.9-0.8 1.3-0.4 2.5-0.7 3.8-1.1 0.3-0.1 0.8-0.7 0.8-1 0-0.7-0.5-1.1-0.9-1.2z" fill="#B2A17A"/>
<path d="m120.6 32.5c-2.6-1.9-8-7.8-11.2-4.6-3.7 3.8 5.4 9.7 7.3 11.8 3.5 3.7 6.5 3.9 3.4 9.6-2.7 4.9-7.9 9.4-13.8 8.9-5.7-0.4-8.2-6.1-9.8-10.9-1.4-4.4 5.9-6.9 8.5-3.6 2.6 3.1-3.9 10.6 3.3 9.6 5.8-0.8 4.2-8.6 2-12-6.4-9.6-13.7-7.4-21.4 0-3.3 3.2-1.4 8.4 0.4 11.7 2.9 5.2 5.3 9.8 7.7 15.3 4.9 11.2 22.5-5.5 27.3-10.1 2.8-2.7 8.8-7.6 8.1-12.2-0.8-5.6-7.6-10.4-11.8-13.5z" fill="#B2A17A"/>
<path d="m179.3 280.8c-2.6-0.5-7.8-1.9-10 0.3-2.8 2.7-2.7 8.4-2.8 12 0 2.2-1.2 7.6 1.9 8 3.6 0.6 3.3-6.9 3.6-8.7 0.7-3.5-0.4-5.2 4-5.7 3.8-0.4 8.4 0.7 10.5 4.2 2 3.3-0.2 7-2.2 9.8-1.9 2.5-6.2-0.5-5.4-3.3 0.7-2.7 7.4-2.1 4-5.7-2.7-2.9-6.5 1-7.4 3.7-2.8 7.4 1.3 10.6 8.5 11.9 3.1 0.6 5.2-2.5 6.4-4.9 1.8-3.7 3.3-6.8 5.5-10.3 4.2-7.3-12.1-10.5-16.6-11.3z" fill="#B2A17A"/>
<path d="m278 338.5c-1.7-1.8-4.8-0.9-5 1.3-0.1 1.1-0.7 1.1-1.6 0.8-4.3-1.6-8.5-3.1-12.8-4.7-1-0.3-1.3-0.9-1.3-1.9 0-3-0.2-6-0.2-9 0-0.4 0-0.9 0.1-1.3 0.1-0.7 0.8-1.2 1.5-0.9 0.4 0.1 0.9 0.3 1.3 0.5 1 0.5 1.9 0.5 2.7-0.4 0.7-0.8 0.2-3.1-0.6-5.5-1-3-2.4-5.5-2.7-5.9-0.3-0.3-1.4-1.6-2.8-1.4-0.6 0.1-1.1 0.5-2 1.4-0.4 0.4-0.9 0.7-1.2 1.2-1.2 1.5-2.5 3-3.4 4.6-1.3 2.4-0.2 4.1 2.5 4.3 0.7 0 1.4 0 2.1 0.2 0.4 0.1 1 0.7 1 1 0 3.6 0 7.3-0.1 10.9 0 0.9-0.4 1.2-1.2 0.9-3.7-1.1-7.5-2.2-11.2-3.2-0.8-0.2-1.1-0.7-1.2-1.6-0.4-2.6-1.1-5.2-1.8-7.8-0.1-0.5-0.9-1-1.4-1-0.4 0-0.9 0.7-1.2 1.1-0.2 0.2-0.1 0.7-0.1 1l0.9 5.4v0.5c-0.1 0.3-0.3 0.4-0.6 0.4-0.2 0-0.4-0.1-0.5-0.2-0.3-0.3-0.4-0.7-0.5-1.1-0.7-2.8-1.3-5.6-2.1-8.4-0.1-0.3-0.7-0.7-1-0.6-0.3 0-0.6 0.5-0.8 0.9-0.1 0.3 0 0.8 0 1.2 0.3 1.8 0.7 3.7 1 5.5v0.6c0 0.4-0.1 0.7-0.3 0.7-0.2 0.1-0.8-0.9-1.4-2.1-0.4-0.7-0.8-1.5-1.1-2.2-0.6-1.2-1.1-2.6-1.9-3.7-0.1-0.2-0.4-0.3-0.8-0.4-0.5-0.1-1 0.2-1.1 0.7-0.1 0.3-0.1 0.6-0.1 0.9 0.7 1.9 1.4 3.7 2.3 5.4 0.5 1 0.3 1.6-0.5 2.2-1.3 1-2.5 2-3.7 3.2-0.2 0.2-0.2 0.5-0.3 0.8-0.1 0.5 0.3 0.9 0.7 0.9h0.8c0.6-0.2 1.1-0.7 1.6-1.1l2.7-2.4c0.7-0.6 2.3-0.4 3 0.6 0.2 0.3-0.3 1.2-0.7 1.6-1.2 1.2-2.6 2.3-3.7 3.5-0.2 0.2-0.3 0.6-0.4 1-0.1 0.6 0.3 1 0.9 1 0.4 0 0.8-0.1 1-0.3 1.6-1.5 3-3 4.4-4.7 0.6-0.7 1-1.1 1.5-1.1 1.1 0.1 1.3 1.2 0.8 1.7-0.3 0.3-0.6 0.5-0.9 0.8-1.1 1-2.3 2-3.4 3.1-0.1 0.2-0.2 0.4-0.2 0.7 0 0.4 0.3 0.8 0.7 0.8h0.8c0.3-0.1 0.7-0.4 0.9-0.7 1.5-1.3 2.9-2.8 4.5-4 0.5-0.4 1.3-0.8 1.8-0.7 4.1 1.1 8.2 2.4 12.3 3.7 0.5 0.2 1.1 1.1 1.1 1.6 0.1 5.2 0.1 10.4 0.1 15.6 0 0.3-0.4 0.8-0.7 0.8-2.7 0.1-4.8 1.5-7 2.8-0.7 0.4-1.6 1.1-0.9 2.1s1.4 0.1 2-0.2c1.7-1 3.4-2 5.1-2.9 0.5-0.2 1.4-0.8 1.6 0.3 0.2 0.8 0.4 1.7-0.9 2.2-1.9 0.7-3.7 1.7-5.5 2.7-0.2 0.1-0.4 0.4-0.5 0.7-0.2 0.4 0 0.8 0.5 0.9 0.3 0 0.6 0 0.8-0.1 1.2-0.6 2.3-1.4 3.5-2.1 0.3-0.2 0.6-0.3 1-0.3 0.6-0.1 0.8 0.3 0.6 0.9-0.1 0.4-0.3 0.7-0.5 1.1-0.1 0.3-0.5 0.4-0.8 0.6l-3 2.4c-0.6 0.5-1.3 1.1-0.6 1.8 0.2 0.2 1.3-0.1 1.8-0.4 0.8-0.6 1.5-1.3 2.3-2 1.3-1.2 2.2-1.2 3.4 0.2 0.5 0.5 0.8 1.1 1.1 1.8 0.6 1.2 1.1 2.4 1.8 3.5 0.2 0.3 0.8 0.7 1.1 0.6s0.6-0.7 0.6-1.1-0.2-1-0.4-1.4l-3-4.8c-0.2-0.3-0.3-0.6-0.4-0.9-0.2-0.5-0.2-1-0.1-1.1s0.5 0.1 0.8 0.5c0.2 0.2 0.4 0.4 0.6 0.7 0.8 1 1.5 1.9 2.3 2.9 0.5 0.6 1.2 1.2 1.9 0.4 0.3-0.3 0.2-1.4-0.2-1.8-1.3-1.4-2.8-2.8-4.3-4-0.6-0.5-1-1-1.1-1.7-0.2-1.1 0.8-1.5 1.2-1.1 0.3 0.3 0.5 0.6 0.8 0.9 1.4 1.5 2.8 3.2 4.3 4.6 0.2 0.2 0.5 0.2 0.8 0.3 0.5 0 0.9-0.3 1-0.8 0-0.4 0-0.7-0.1-0.9-2.3-2.2-4.5-4.5-7-6.5-0.8-0.7-1.4-1.2-1.4-2.3-0.2-4.8-0.4-9.5-0.7-14.3-0.1-1.1 0.4-1.3 1.4-0.9 3.5 1.3 7 2.5 10.5 3.9 3.1 1.2 3.2 0.5 2.3 4.4-0.3 1.4-0.6 2.8-0.7 4.3s1 2.6 2.2 2.3c1.5-0.4 2.9-0.9 4.3-1.5s2.7-1.4 4.1-2c1.9-0.8 2.3-1.8 1.6-3.8-0.7-3-2.7-5.3-4.7-7.6z" fill="#B2A17A"/>
<path d="m110.9 196.5c-0.4-0.2-1-0.2-1.4-0.1-1.9 0.3-3.7 0.7-5.5 1-0.3 0.1-0.6 0.1-1 0.1-0.5 0-1-0.1-1-0.3s0.3-0.4 0.8-0.6c0.3-0.1 0.5-0.2 0.8-0.3 1.2-0.4 2.4-0.7 3.5-1.1 0.7-0.2 1.5-0.7 1.1-1.6-0.2-0.4-1.3-0.7-1.7-0.5-1.8 0.7-3.6 1.6-5.3 2.6-0.6 0.4-1.3 0.5-1.9 0.4-1.1-0.2-1.1-1.3-0.5-1.6 0.4-0.2 0.7-0.3 1.1-0.4 2-0.7 4-1.4 5.9-2.3 0.2-0.1 0.4-0.4 0.6-0.7 0.2-0.4 0-1-0.4-1.2-0.3-0.2-0.6-0.3-0.9-0.2-2.9 1.3-5.8 2.6-8.6 4.1-0.9 0.5-1.6 0.8-2.6 0.5-4.5-1.6-9-3.1-13.5-4.6-1-0.4-1-0.9-0.4-1.6 2.5-2.8 4.9-5.6 7.4-8.3 2.3-2.4 1.6-2.8 4.9-0.6 1.2 0.8 2.4 1.6 3.7 2.2s2.8 0 3-1.2c0.2-1.5 0.2-3 0.2-4.6 0-1.5-0.3-3-0.3-4.6 0-2.1-0.9-2.9-3-2.9-3.2-0.1-6 0.9-8.9 2-2.3 0.9-2.6 4.1-0.6 5.1 0.9 0.5 0.8 1 0.1 1.7-3 3.4-6.1 6.8-9 10.2-0.7 0.8-1.3 0.9-2.3 0.5-2.8-1.1-5.7-2.1-8.5-3.1l-1.2-0.6c-0.7-0.4-0.8-1.1-0.3-1.7 0.3-0.4 0.6-0.7 0.9-1 0.9-0.8 1.2-1.5 0.6-2.6-0.4-0.9-2.8-1.3-5.3-1.5-3.1-0.2-6 0.2-6.4 0.4-0.4 0.1-2 0.7-2.3 2-0.1 0.6 0.1 1.2 0.5 2.3 0.2 0.5 0.4 1.1 0.7 1.6 1 1.6 1.9 3.4 3.1 4.9 1.7 2.1 3.8 1.7 4.9-0.7 0.3-0.6 0.5-1.3 0.9-1.9 0.3-0.3 1-0.6 1.3-0.5 3.4 1.3 6.7 2.7 10.1 4 0.8 0.3 1 0.8 0.4 1.5-2.4 3.1-4.8 6.2-7.1 9.2-0.5 0.7-1 0.7-1.9 0.5-2.6-0.6-5.2-0.9-7.9-1.2-0.5-0.1-1.3 0.5-1.5 1-0.2 0.4 0.3 1.1 0.6 1.6 0.2 0.2 0.6 0.3 0.9 0.4 1.8 0.4 3.6 0.8 5.4 1.2 0.1 0 0.3 0.1 0.4 0.2 0.2 0.2 0.3 0.5 0.1 0.7-0.1 0.2-0.2 0.3-0.3 0.4-0.4 0.1-0.8 0.1-1.2 0-2.8-0.4-5.7-0.8-8.5-1.1-0.3 0-0.9 0.4-0.9 0.7-0.1 0.3 0.3 0.8 0.6 1s0.7 0.3 1.1 0.4c1.8 0.4 3.7 0.7 5.5 1.1 0.2 0 0.4 0.1 0.6 0.2 0.3 0.1 0.6 0.4 0.6 0.5 0 0.2-1.1 0.4-2.5 0.6-0.8 0.1-1.6 0.2-2.5 0.2-1.4 0.1-2.8 0.1-4.2 0.4-0.2 0-0.5 0.3-0.7 0.6-0.3 0.4-0.2 1 0.2 1.3 0.3 0.2 0.5 0.4 0.8 0.4 2 0.1 3.9 0.1 5.9-0.1 1.1-0.1 1.6 0.3 1.9 1.3 0.5 1.5 1 3.1 1.6 4.6 0.1 0.2 0.3 0.4 0.6 0.6 0.4 0.2 0.9 0.1 1.1-0.3 0.1-0.3 0.3-0.5 0.3-0.8 0-0.6-0.3-1.3-0.5-1.9l-1.2-3.3c-0.3-0.9 0.5-2.3 1.6-2.5 0.3-0.1 1 0.7 1.3 1.2 0.7 1.6 1.2 3.2 1.9 4.7 0.1 0.3 0.4 0.5 0.8 0.7 0.5 0.3 1.1 0.1 1.2-0.5 0.1-0.4 0.2-0.7 0.1-1-0.8-2-1.7-3.9-2.7-5.8-0.5-0.9-0.7-1.3-0.4-1.8 0.5-1 1.6-0.8 1.8-0.1 0.1 0.4 0.3 0.8 0.4 1.2 0.5 1.4 1 2.9 1.7 4.3 0.1 0.2 0.3 0.3 0.6 0.4 0.4 0.2 0.8 0 1-0.4 0.1-0.2 0.2-0.5 0.3-0.7 0.1-0.3-0.2-0.8-0.3-1.1-0.7-1.9-1.5-3.7-2.1-5.7-0.2-0.6-0.3-1.5 0-1.9 2.6-3.4 5.2-6.8 7.9-10.1 0.3-0.4 1.4-0.6 1.9-0.5 4.9 1.8 9.7 3.7 14.6 5.6 0.3 0.1 0.6 0.7 0.5 0.9-0.9 2.5-0.3 5 0.1 7.5 0.1 0.9 0.4 1.9 1.6 1.6 1.1-0.3 0.6-1.2 0.5-2-0.3-1.9-0.6-3.9-0.8-5.8-0.1-0.5-0.2-1.6 0.9-1.4 0.8 0.2 1.7 0.3 1.7 1.7 0 2 0.2 4.1 0.4 6.1 0 0.2 0.2 0.5 0.4 0.7 0.3 0.3 0.8 0.3 1-0.1 0.1-0.3 0.3-0.5 0.2-0.8-0.1-1.3-0.5-2.7-0.6-4v-1c0.1-0.6 0.6-0.7 1-0.2 0.3 0.3 0.6 0.5 0.8 0.8 0.2 0.2 0.2 0.7 0.3 1 0.4 1.2 0.7 2.4 1.1 3.6 0.2 0.7 0.5 1.6 1.5 1.2 0.3-0.1 0.4-1.2 0.3-1.8-0.2-1-0.7-1.9-1-2.8-0.6-1.6-0.3-2.5 1.4-3.1 0.6-0.2 1.4-0.3 2.1-0.4 1.3-0.1 2.6-0.2 3.9-0.4 0.4-0.1 0.9-0.5 0.9-0.8 0-0.5-0.5-0.9-0.8-1.1z" fill="#B2A17A"/>
<path d="m183.1 1.5c-0.1 0.4-0.7 0.6-1 1-0.1 0.1-0.1 0.3-0.2 0.5-0.3 0.6-0.5 1.2-0.8 1.8-0.8 0.1-0.9 1-1.4 1.5 0.2 0.7-0.5 0.8-0.9 1.1-0.1 0.1-0.3 0.2-0.5 0.3-1 0.8-1.6 2-2.9 2.5-0.2 0.1-0.4 0.6-0.5 0.9-0.3 0.8-0.6 1.5-1.5 1.6-0.4 0.1-0.8 0.3-0.9 0.9 0 0.3-0.3 0.5-0.7 0.7-1 0.4-1.6 1.5-2.6 1.9 0.3 0.8-0.6 0.6-0.7 1-0.2 0.7-0.9 0.5-1.4 0.8-0.3 0.2-0.8 0.2-1.2 0.3-0.9 0.3-1.3 0.7-1.2 1.6 0 0.5-0.2 0.9-0.5 1-0.7 0.3-1 1.2-1.8 1.1-0.1 0-0.3 0.4-0.5 0.7h0.6c-0.1 0.4-0.2 1-0.4 1.1-0.7 0.3-0.9 0.9-1.3 1.4-0.3 0.4-0.1 1.1-0.9 1.1-0.2 0.5-0.2 1-0.7 1.4-0.4 0.4-0.5 0.9-1.1 1.1-0.2 0.1-0.3 0.6-0.5 0.9 0.6 0.2 0.2 0.6 0.1 0.9-0.2 0.9 0.1 1.5 0.7 2 0.2 0.2 0.3 0.4 0.5 0.6 0.4-0.1 0.7-0.3 1.1-0.2s0.7-0.1 1.1-0.3c0.6-0.3 0.6-0.3 1.4 0.2l0.2 0.2c0.7-0.1 1.5-0.1 2-0.5 0.5-0.3 0.9-0.3 1.4-0.5l1.2 0.9c0.4-0.1 0.8 0 1.1-0.2 0.4-0.3 0.8-0.7 1.2-1.1 0.8-0.8 1.7-1.7 2.8-1.9 1-0.2 1.6-0.9 2.3-1.5 0.9-0.8 1.7-1.5 3-1.6 0.6-0.1 1.2-0.2 1.6-0.3 0.5-0.4 0.9-0.8 1.3-1.1 1.1-0.7 2.2-1.4 2.9-2.5 0.8-1.2 1.8-2.2 2.7-3.3l0.2-0.2c0.6-0.2 0.8-0.5 0.8-1.1 0-0.2 0.2-0.6 0.3-0.6 0.6-0.2 1-0.9 1.5-0.8 0.5 0.3 0.7 0.6 0.9 0.6 1.6-0.2 2.7-1.2 3.3-2.7 0.4-1 0.8-2.1 1.3-3 0.6-1.1 1.1-2.1 1.6-3.3 0.3-0.8 0.5-1.6 1.2-2.2 0.1-0.1 0.1-0.4 0.2-0.5 0.1-0.2 0.2-0.6 0.3-0.6 0.6-0.1 0.8-0.5 1-0.9 0.5-0.9 1.3-1.4 2.2-1.9 0.3-0.2 0.7-0.3 1-0.5 0.7-0.3 1.3-0.9 1.4-1.5 0-0.1 0.1-0.2 0.1-0.3h-19.7l-0.2 0.2c-0.2 0.4-0.4 0.7-0.5 1.3z" fill="#B2A17A"/>
<path d="m205.1 397.3c0.1-0.5 0.6-1 0.9-1.5 0.3-0.3 0.7-0.5 1-0.8 1.3-1.4 1.9-3.1 2.6-4.7 0.7-1.8 1.3-3.7 2.4-5.4 0.2-0.2 0.2-0.5 0.3-0.8 0.6-1.1 0.4-2.3 0.5-3.5 0.2-1.1-0.2-1.9-1.1-2.4-0.4-0.2-0.6-0.6-0.5-1 0-0.5 0.2-0.9 0.3-1.4 0.2-1 0.5-2 0.8-3 0.3-1.5 0.8-6.2-0.6-7.1-1 2.7 0 6-2.3 8.3-0.7-0.1-1.4-0.1-2 0.3-0.8-0.4-1 0.4-1.6 0.6-0.4 0.2-0.6 0.5-1 0.8-0.9 0.7-1.8 1.3-2.7 2-1.5 1.2-1.4 1-1.2 2.5 0 0.1 0 0.2 0.1 0.3-0.9 0.8-1.2 2.1-2.3 2.7-1.1 1.5-2.1 3-3.2 4.5-0.1 0.2-0.1 0.7-0.2 0.7-0.5 0.1-0.6 0.5-0.9 0.8-0.5 0.6-0.9 1.2-1.8 1.5s-1 0.6-1.1 1.5c-0.1 0.7 0.1 1.5-0.9 1.7-0.2 0.1-0.4 0.4-0.4 0.6 0.1 1.1-0.8 1.1-1.4 1.3-1.6 0.6-2.7 1.5-3.7 3-0.2 0.3-0.5 0.5-0.7 0.7-0.1 0.1-0.2 0.2-0.4 0.3h19.7c0.2-0.5 0.5-0.8 0.7-1.3 0.1-0.3 0.6-0.6 0.7-1.2z" fill="#B2A17A"/>
<path d="m8.7 331.1c1.5-0.4 2.3 0.6 3.4 1.3 1 0.7 2.9 1.1 3.4 2.3 0.3 0.8-8.4 7.6-9.4 8.3-1.8 1.4-4.1 2.5-5.2 4.6-0.7 1.2 0.1 4 0.3 5.2 0.3 1.9 0.7 4.1 2 5.6 0.6 0.1 1.2 0 1.7-0.3 2.2-1.5 7.9-3.7 8-6.8 0.2-4.9 2.3-9.2 4.4-13.5 0.4-0.9 0.9-1.9 1.5-2.6-0.1 0.1 0.4 3 0.4 3.4 0 1.2-0.1 2.4-0.2 3.6-0.2 2.2-0.4 4.4-0.9 6.5-0.4 1.7-0.8 3-0.1 4.7 0.8 2 1.7 3.8 2.2 5.9 0.4 1.8 0.4 6.2 3.5 5.3 1.7-0.5 3.4-4.3 4.3-5.7 3.2-4.9 1.4-9.2-0.1-14.3-0.9-3-2.9-6.4-3.1-9.5-0.1-1.1-0.2-0.8 0.7-1.6 0.6-0.5 1.6-1 2.4-1.3 1.4-0.6 3.3-1.1 3.7 0.9 0.7 3.9 2.6 7.9 3.9 11.7 0.3 0.9 0.7 1.8 0.9 2.7 0.8 3.1 5 4.2 7.5 5.5 1.7 0.8 4 2.9 5.2 0.4s-0.4-7.2-1-9.7c-0.3-1.1-0.9-1.9-1.5-2.9-1.1-2.1-4-4.1-5.6-5.8-1.9-2-3.9-4.1-6.5-5.3-0.2-0.1-0.3-0.4-0.6-0.6 0.3-0.2 0.6-0.4 0.8-0.6 2-1.9 2.4-1.9 3.8-0.4 0.1 0.1 0.2 0 0.3 0.1 2.8 1.9 5.7 3.7 8 6.2 1.5 1.6 2.7 3.4 3.8 5.2 0.8 1.3 1.8 4 3.4 4.4 1.9 0.5 6.7 1.5 8.1-0.2 1-1.2 0.5-3.5 0.4-4.9-0.2-2.2 0.1-5.9-2.2-7.1-5.7-2.7-12.4-3.9-18.2-6.1l-2.4-0.9c0.4-1.1 1-1.9 1.8-2.6 0.6 0 1.1 0 1.5 0.1 3.6 0.4 7.3 0.8 10.9 1.7 3.2 0.7 6 2.3 9.1 3 1.7 0.4 5.3-3.3 6.8-4.1 2-1.1 0.9-2.7-0.3-4-1.6-1.6-3.2-3.4-4.7-5.1-0.9-1.1-1.8-1.4-3.3-0.9-5.7 2.1-11.7 3.7-17.3 5.9-0.4 0.2-1 0.4-1.5-0.2 0.6-1.8 0.3-3.5 0-5.3-0.2-1.3-0.1-1.2 1.3-1.9 2.9-1.3 5.7-2.6 8.7-3.6 2.3-0.8 6.3-0.6 8.2-2.1 0.4-0.3 0.8-0.5 1.2-0.7 0.4-1.6 2.1-6.4 1.2-7.9 0-0.1-0.1-0.2-0.1-0.2-0.1 0-0.2 0.1-0.3 0-1.4-1.8-7.3-3.6-8.9-1.3-1.2 1.7-3.1 3.1-4.4 4.7-2.5 2.9-4.9 7.9-8.8 9-1.2 0.3-3.4-1.4-4.1-2.1-0.8-0.9-1.1-0.3-0.3-1.7 1.8-3.1 4.5-6.3 6.8-9 2.1-2.5 1.8-4.8 1.8-7.8 0-1.8 0.9-6.1-1.4-6.9-0.2-0.1-0.3-0.1-0.5-0.2-0.4-0.1-3.9 2.2-4.4 2.6-1.4 0.9-2.6 2.1-3 3.8 1 2.8-0.4 6.5-1.3 9.2-0.8 2.7-1.6 5.9-2.8 8.4-0.9 1.9-2.7 2.6-2.9 0.1-0.2-2.7 0.7-5.4 1.1-8.1 0.4-3.5 0.9-7.1 1.4-10.6 0.1-0.6 0-1.2-0.3-1.6-1.8-2.9-3.4-6-6.6-7.7-0.4-0.2-1.7-0.2-1.9 0.1-1.6 2.1-4.1 5.2-3.7 8 0.3 2.2 1.7 4.6 2.5 6.8 1.7 4.5 3.2 9.1 3.7 13.9 0.1 0.8 0 1.5-0.2 2.2-1.1 0.8-2.6 1-3.7 1.9-0.1 0.1-0.2 0.1-0.2 0.1-0.3-0.1-0.6 0-0.7-0.5-0.4-3.7-0.6-7.5-0.9-11.2-0.2-2.3-1.1-5.1-0.5-7.3 0.5-2.1-2.6-3.7-4-4.9-1.7-1.4-5.7-5.5-7.2-2.3-1.2 2.5-0.3 5.8-0.4 8.5 0 1.2 0 2.3 0.7 3.4 3.2 4.5 6.2 9.4 8.9 14.2 0.4 0.7 0.8 1.5 0.3 2.4-0.7 0.4-1.4 0.9-2.1 1.3-1 0.6-7.1-5.7-7.8-6.5-2-2.2-3.8-4.6-6.1-6.6-0.3-0.3-0.7-0.6-1-0.8v12.6c2.7 0.8 5.4 1.7 8 2.6 0.8 0.3 1.7 0.5 2.6 0.9 1.5 0.7 0.5 2.5-0.9 2.5-1.6-0.1-3.1-0.1-4.7-0.2s-3.3-0.4-4.9-0.7v5.4c1.9-0.5 3.8-1 5.7-1.8 0.7-0.3 1.5-0.6 2.3-0.1-0.5 2.1-1.2 3.7-0.4 5.8 0.5 1.5-3.6 2.2-4.6 2.5-1 0.2-2 0.6-3 0.9v6.3c0.8-0.7 1.6-1.2 2.1-1.6 1.6-1.4 4.3-3.8 6.5-4.4zm4.8-6.4c0.7-1.5 1.9-2.6 2.9-3.9 0.5-0.6 1.2-1.1 1.8-1.5 1.4-0.9 2.8-1.7 4.2-2.6 0.9-0.6 1.9-1.1 2.8-1.7 1.2-0.9 2.6-1.2 3.9-2 0.4-0.3 1-0.3 1.5-0.6s1.1-0.2 1.6-0.4 1-0.1 1.5-0.2c1.1-0.2 2.1 0.2 3.2 0.5 0.3 0.1 0.6 0.5 0.9 0.7 1.1 1.2 1 2.7 0.9 4.1-0.2 2.1-1.4 3.6-2.8 5-1.2 1.2-2.4 2.4-4 3.1-1.2 0.6-2.1 1.6-3.2 2.3-0.6 0.4-1.4 0.4-2 0.8s-1.3 0.5-2 0.6c-0.6 0.2-1.2 0.3-1.9 0.4-1.1 0.1-2.2-0.2-3.3-0.3-1-0.1-1.9-0.5-2.8-0.7-1.2-0.3-2.2-1-3.1-1.8-0.3-0.1-0.3-1.4-0.1-1.8z" fill="#B2A17A"/>
<path d="m392.6 333c-1.5 0.3-2.9 1-4.3 1.5-1.6 0.5-7.4 7.3-5 8.7 1.9 1.1 6.3 1.1 8.5 0.7 1.8-0.3 3.4-1.7 4.7-2.9 0.1-1.2 1.9-2.8 3.4-4v-6.3c-2.3 0.9-4.8 1.9-7.3 2.3z" fill="#B2A17A"/>
<path d="m394.6 299.1c-2.1 0.1-4.8 0.1-6.7 1-0.7 0.3-1.3 1.1-1 1.7 1 2 1.7 4.3 2.8 6.3 0.1 0.1 0.2 0.2 0.2 0.4 0.3 0.8 1 1.6 1.7 1.8 2.7 1 5.5 1.9 8.3 2.8v-12.7c-0.5-0.4-1-0.6-1.5-0.8-1-0.5-2.2-0.6-3.8-0.5z" fill="#B2A17A"/>
<path d="m391.1 316c-0.5-0.1-1-0.2-1.4-0.1-3.1 0.7-6.1 3.6-9.5 3-0.7-0.1-1.3 0.7-1.1 1.4 0.9 2.8 6.7 6.3 9.5 5.6 3.8-0.9 7.7-1.5 11.5-2.5v-5.4c-1.5-0.3-3-0.6-4.5-1-1.6-0.3-3-0.7-4.5-1z" fill="#B2A17A"/>
<path d="m17.1 196.9c12 2.4 8.2-21.6 7.2-28.2-0.6-3.9-1.3-11.6-5.4-13.6-5.1-2.5-12.9 0.4-17.8 2.1-0.3 0.1-0.6 0.2-1 0.3v8.2c2-0.5 3.8-1.1 4.7-1.2 5.1-0.8 6.9-3.2 9.8 2.6 2.5 5 3.2 11.8-0.5 16.5-3.4 4.3-9.3 3.3-14 2v9h0.2c5.8 0.5 10.9 1.1 16.8 2.3z" fill="#B2A17A"/>
<path d="m1.4 176.2c4-0.3 6.5 9.2 9.8 2.7 2.6-5.2-4.6-8.3-8.7-8.4-0.9 0-1.7 0-2.4 0.1v6c0.3-0.2 0.8-0.3 1.3-0.4z" fill="#B2A17A"/>
<path d="m390.9 163.7c0.7 3.5 5.3 2.8 9.1 1.9v-8.2c-3.5 1-9.9 2.3-9.1 6.3z" fill="#B2A17A"/>
<path d="m399.5 185.3c-3.9-1.2-2.7-7.1 0.5-8.7v-6c-9.5 0.8-11.3 7.7-9.7 17.5 0.7 4.4 5.9 5.9 9.7 6.3v-9c-0.2 0-0.3 0-0.5-0.1z" fill="#B2A17A"/>
<path d="m328.4 261.5c-4.1-1.4-6.9 0.8-10.3 2.8-2 1.2-4.1 3.3-6.3 4.1-0.8 0.3-0.6 0.3-1.3-0.2-0.5-0.4-1-1-1.4-1.5-0.7-0.9-1.4-2.2-0.1-2.9 2.7-1.3 5.2-3.4 7.7-5l1.8-1.2c2.1-1.1 2.1-4.4 2.5-6.5 0.3-1.4 1.3-3.4-0.7-3.9-2-0.4-5.1 1.6-6.8 2.6-0.7 0.4-1.2 1.1-1.8 1.6-1.3 1.2-2.2 3.6-3.2 5.2-1.1 1.8-2.2 3.6-2.6 5.7 0 0.2-0.2 0.3-0.3 0.5-0.2-0.2-0.4-0.4-0.6-0.5-1.7-1.1-1.8-1.4-1-2.7v-0.2c0.9-2.4 1.6-4.8 3-6.9 0.9-1.4 2-2.6 3.1-3.8 0.8-0.8 2.6-2 2.5-3.3 0-1.4-0.2-5.1-1.7-5.8-1.1-0.5-2.6 0.3-3.6 0.6-1.5 0.6-4.3 1-4.7 2.9-0.9 4.6-0.5 9.7-1 14.3-0.1 0.6-0.1 1.2-0.2 1.9-0.9-0.1-1.6-0.4-2.2-0.8-0.1-0.4-0.2-0.8-0.2-1.1-0.4-2.7-0.8-5.4-0.9-8.2-0.1-2.4 0.5-4.8 0.5-7.2 0-1.3-3.4-3.2-4.3-4.2-1.2-1.3-2.1-0.2-2.8 1-0.9 1.5-1.9 3-2.8 4.3-0.6 0.9-0.7 1.6 0 2.5 2.6 3.8 4.9 7.8 7.6 11.4 0.2 0.3 0.5 0.7 0.1 1.1-1.4-0.1-2.6 0.4-3.8 1-0.9 0.4-0.9 0.3-1.6-0.6-1.5-1.8-3-3.7-4.2-5.6-1-1.5-1.7-4.5-3.1-5.6-0.3-0.2-0.5-0.5-0.8-0.7-1.3 0-5.1-0.3-5.9 0.6l-0.1 0.1c0 0.1 0.1 0.2 0.1 0.2-1.1 1.3-1.2 6 0.7 6.7 1.4 0.5 2.8 1.7 4.2 2.3 2.5 1.3 6.7 2 8.2 4.7 0.5 0.8-0.4 2.7-0.8 3.4-0.5 0.8 0 0.8-1.2 0.5-2.5-0.7-5.4-2-7.8-3.2-2.2-1.1-3.8-0.4-6 0.2-1.3 0.3-4.6 0.5-4.7 2.3v0.4c0 0.3 2.3 2.4 2.7 2.7 0.9 0.8 2 1.5 3.3 1.4 1.9-1.3 4.8-0.9 6.9-0.8s4.5 0 6.6 0.5c1.5 0.3 2.4 1.5 0.6 2.1-1.9 0.7-4.1 0.5-6.1 0.8-2.7 0.3-5.3 0.7-8 1-0.5 0.1-0.9 0.2-1.1 0.5-1.8 1.9-3.7 3.6-4.3 6.2-0.1 0.3 0.2 1.3 0.4 1.4 1.8 0.8 4.5 2 6.5 1.1 1.5-0.7 3-2.1 4.4-3.1 2.9-2.1 6-4 9.4-5.3 0.6-0.2 1.1-0.3 1.6-0.3 0.8 0.7 1.2 1.7 2.1 2.3 0.1 0 0.1 0.1 0.1 0.2 0 0.2 0.1 0.4-0.2 0.6-2.6 1-5.3 1.8-7.9 2.8-1.6 0.6-3.5 1.7-5.2 1.8-1.7 0-2.2 2.6-2.8 3.8-0.7 1.5-2.9 5.1-0.3 5.7 2.1 0.4 4.3-0.9 6.2-1.3 0.9-0.2 1.7-0.4 2.3-1.2 2.6-3.2 5.6-6.3 8.6-9.1 0.4-0.4 0.9-0.9 1.7-0.7l1.3 1.3c0.6 0.6-2.8 6.2-3.2 6.9-1.2 1.9-2.6 3.6-3.6 5.6-0.4 0.8-0.6 1.5-0.7 2.1-0.1 0.9 0.1 1.7 0.4 2.9 0.5 1.5 1 3.4 2 4.7 0.4 0.4 1.1 0.8 1.4 0.4 1.3-1.1 2.8-2 4-3.2 0.1-0.1 0.1-0.2 0.2-0.2 0.6-0.4 0.9-1 1-1.6 0.4-4.3 0.4-8.6 0.8-12.8 0.1-0.7 0-1.3 0.1-2 0.2-1.2 1.7-0.9 1.9 0.2 0.3 1.1 0.5 2.3 0.7 3.4 0.4 2.3 0.6 4.8 0.6 7.1 0 1.1 0 2.3 0.1 3.4 0 0.4 0.1 0.7 0.2 1 1.1 2.1 3.8 3.7 4 6.3 0.1 0.6 0.8 0.8 1.2 0.5 1.9-1.2 3.3-6 2.3-7.9-2.1-3.9-3.7-8-6.3-11.7-0.3-0.4-0.7-1-0.5-1.7 1.6 0 2.9 0.2 4.3-0.8 1-0.7 2.3 2.2 2.7 2.9 1.3 2.4 3.1 4.5 4.2 6.9 0.5 1.1 1.3 1.9 1.9 2.8 0.7 1.1 6.7 4 7.3 2 0.5-1.6-0.4-4.8-1.1-6.3-0.5-1.2-1.9-2.1-3-2.9-1.4 0.2-4.1-2.2-5.1-2.9-1.4-1-3.6-2.5-4.5-4-0.6-1 0-1.8 0.3-2.7s0.2-2.3 1.1-2.9c0.5-0.4 7.1 4.7 7.8 5.2 1.4 1 2.6 2.5 4.3 2.9 1 0.3 2.9-0.8 3.7-1.2 1.3-0.6 2.8-1.3 3.7-2.5-0.1-0.5-0.2-0.9-0.5-1.2-1.5-1.3-4.2-5-6.4-4.5-3.6 0.8-7.1 0.1-10.6-0.6-0.7-0.1-1.5-0.3-2.2-0.6 0.1 0 2.1-0.9 2.4-0.9 0.9-0.2 1.8-0.4 2.6-0.5 1.6-0.3 3.2-0.5 4.9-0.6 1.3 0 2.3 0 3.4-0.8 1.3-0.9 2.4-2 3.9-2.7 1.2-0.6 4.4-1.5 3.2-3.5-0.6-0.8-3.6-1.3-4.9-1.7zm-20.6 16.4c-0.1 0.2-1.1 0.5-1.4 0.5-1.2-0.3-2.3-0.8-3.4-1.3-0.5-0.2-1-0.6-1.4-1-0.9-0.8-1.8-1.7-2.7-2.6-0.6-0.6-1.2-1.2-1.8-1.7-0.8-0.7-1.4-1.7-2.1-2.4-0.3-0.3-0.4-0.7-0.7-0.9-0.3-0.3-0.4-0.7-0.6-1.1-0.2-0.3-0.3-0.7-0.5-1.1-0.4-0.8-0.2-1.6-0.3-2.4 0-0.3 0.2-0.5 0.4-0.8 0.7-1 1.7-1.2 2.8-1.4 1.5-0.2 2.9 0.4 4.2 1.1 1.1 0.6 2.2 1.3 3 2.3 0.6 0.8 1.5 1.2 2.3 1.9 0.4 0.4 0.5 0.9 1 1.3 0.4 0.3 0.6 0.9 0.8 1.3s0.5 0.8 0.7 1.3c0.3 0.8 0.3 1.6 0.4 2.4 0.1 0.7 0 1.4 0.1 2.2 0 0.8-0.4 1.6-0.8 2.4z" fill="#B2A17A"/>
<path d="m291.7 169.4c-0.1-0.7-0.3-1.4-0.8-1.9 0.2-0.8-0.7-0.9-1-1.4-0.2-0.3-0.7-0.5-1-0.8-0.9-0.7-1.7-1.5-2.6-2.2-1.5-1.2-1.3-1.2-2.7-0.6-0.1 0-0.2 0.1-0.3 0.1-1-0.6-2.3-0.6-3.1-1.7-1.7-0.7-3.4-1.4-5.1-2.1-0.2-0.1-0.7 0-0.8-0.1-0.2-0.5-0.6-0.5-1-0.7-0.7-0.3-1.4-0.6-1.8-1.4-0.5-0.8-0.8-0.8-1.7-0.7-0.7 0.1-1.4 0.4-1.9-0.5-0.1-0.2-0.5-0.3-0.7-0.3-1 0.3-1.3-0.5-1.6-1.1-0.9-1.4-2.1-2.3-3.8-2.9-0.3-0.1-0.6-0.3-0.9-0.5-0.2-0.1-0.4-0.3-0.6-0.4-0.4-0.2-0.9-0.3-1.4-0.3-0.4 0-0.8-0.5-1.2-0.8-0.1-0.1-0.4 0-0.6 0-0.7-0.1-1.3-0.2-2-0.4-0.3-0.8-1.2-0.7-1.7-1.1-0.7 0.3-0.9-0.3-1.3-0.6-0.1-0.1-0.2-0.3-0.4-0.4-1-0.7-2.4-1.1-3.1-2.3-0.1-0.2-0.6-0.2-1-0.3-0.8-0.1-1.5-0.2-1.9-1.1-0.2-0.4-0.4-0.8-1.1-0.6-0.2 0-0.6-0.2-0.8-0.5-0.6-0.9-1.8-1.2-2.5-2.1-0.7 0.5-0.7-0.5-1.2-0.5-0.7 0-0.7-0.8-1.1-1.1-0.3-0.2-0.3-0.7-0.5-1.1-0.4-0.8-1-1.1-1.8-0.8-0.5 0.1-0.9 0-1.1-0.2-0.4-0.6-1.4-0.7-1.5-1.6 0-0.1-0.4-0.2-0.8-0.3 0.1 0.3 0.1 0.4 0.2 0.6-0.4 0-1 0.1-1.2-0.1-0.4-0.6-1.1-0.7-1.7-0.9-0.5-0.2-1.1 0.2-1.3-0.6-0.5-0.1-1.1 0-1.6-0.3-0.4-0.3-1-0.3-1.3-0.9-0.1-0.2-0.6-0.2-1-0.3-0.1 0.6-0.6 0.3-0.8 0.3-0.9 0-1.4 0.5-1.8 1.2-0.1 0.2-0.3 0.4-0.5 0.6 0.2 0.3 0.4 0.6 0.5 1 0 0.5 0.3 0.7 0.5 1 0.5 0.5 0.4 0.5 0.1 1.4 0 0.1-0.1 0.2-0.1 0.3 0.3 0.6 0.5 1.4 0.9 1.8s0.5 0.8 0.8 1.2c-0.2 0.5-0.4 0.9-0.6 1.4 0.1 0.4 0.2 0.8 0.4 1 0.4 0.4 0.9 0.6 1.3 0.9 1 0.6 2 1.2 2.5 2.3 0.4 1 1.2 1.4 1.9 1.9 1 0.7 1.9 1.4 2.3 2.5 0.2 0.6 0.5 1.1 0.6 1.5 0.5 0.4 1 0.7 1.4 1.1 0.9 1 1.9 1.8 3.1 2.3 1.3 0.5 2.6 1.3 3.9 1.9 0.1 0 0.2 0.1 0.2 0.2 0.3 0.5 0.7 0.6 1.2 0.5 0.2 0 0.6 0 0.7 0.2 0.3 0.6 1.1 0.8 1.1 1.3-0.2 0.5-0.5 0.8-0.4 1 0.6 1.5 1.8 2.4 3.4 2.6 1.1 0.2 2.2 0.3 3.2 0.6 1.2 0.3 2.3 0.6 3.5 0.8 0.8 0.1 1.7 0.2 2.4 0.6 0.1 0.1 0.4 0 0.6 0.1 0.2 0 0.6 0 0.7 0.2 0.2 0.5 0.7 0.6 1.1 0.7 1 0.3 1.7 1 2.3 1.7 0.3 0.3 0.5 0.6 0.7 0.9 0.4 0.6 1.1 1 1.7 1 0.7-0.1 1.1 0.3 1.7 0.4 0.5 0.1 0.9 0.5 1.6 0.5 0.6 0 1.1 0.3 1.7 0.6 0.4 0.2 0.7 0.5 1 0.7 1.6 0.9 3.4 1.2 5.2 1.4 1.9 0.3 3.9 0.4 5.8 1.2 0.2 0.1 0.6 0 0.8 0.1 1.2 0.3 2.4-0.2 3.5-0.3s1.8-0.6 2.1-1.7c0.1-0.5 0.5-0.7 0.9-0.7 0.5-0.1 0.9-0.1 1.4-0.1 1 0 2.1 0.1 3.1 0.1 1.6 0 6.2-0.6 6.7-2.2-2.3-0.2-5.3 1.5-8-0.2z" fill="#B2A17A"/>
<path d="m137.2 328.2c-6.4-9.4-19.7 8.8-23.3 13.9-2.1 2.9-6.8 8.5-5.4 12.5 1.7 5 8.7 8.2 13.1 10.4 2.7 1.3 8.6 5.8 11 2.3 2.8-4.1-6.6-8-8.7-9.5-3.9-2.8-6.7-2.5-4.7-8.2 1.7-5 5.6-9.9 11.2-10.5 5.3-0.6 8.5 4.2 10.8 8.4 2 3.8-4.2 7.3-7.2 4.8-2.9-2.4 1.8-10.3-4.6-8.2-5.2 1.7-2.4 8.5 0.2 11.3 7.5 7.7 13.8 4.5 19.6-3.6 2.5-3.5-0.1-7.9-2.4-10.7-3.5-4.5-6.5-8.3-9.6-12.9z" fill="#B2A17A"/>
<path d="m334.4 337.5c-3.6-0.7-10.5-2.7-13.6 0.2-3.8 3.6-3.9 11.3-4.1 16.2-0.1 3-1.8 10.3 2.4 11 4.9 0.9 4.6-9.3 5.1-11.8 1-4.7-0.5-7.1 5.5-7.7 5.2-0.5 11.4 1.1 14.2 5.9 2.7 4.6-0.4 9.5-3.2 13.3-2.6 3.4-8.4-0.8-7.3-4.6 1-3.6 10.2-2.6 5.6-7.6-3.7-4-8.8 1.3-10.2 4.8-4 10 1.5 14.4 11.3 16.4 4.2 0.8 7.2-3.3 8.8-6.5 2.5-5 4.7-9.2 7.6-13.9 6.1-9.8-16-14.4-22.1-15.7z" fill="#B2A17A"/>
<path d="m2.6 75.6c0.6-0.2 1.2-0.7 1.4-1.2 1.6-4 2.9-8.1 4.5-12 0.3-0.6 0.4-1.3 0.7-1.9 0.5-1.1 1.9-0.3 1.8 0.7-0.1 1.2-0.2 2.3-0.3 3.5-0.3 2.4-0.8 4.7-1.5 7-0.3 1.1-0.7 2.2-0.9 3.3-0.1 0.3-0.2 0.7-0.1 1.1 0.5 2.4 2.5 4.7 2 7.2-0.1 0.6 0.5 1 1 0.9 2.2-0.6 4.9-4.8 4.5-6.9-0.9-4.3-1.2-8.7-2.7-13-0.2-0.5-0.4-1.1 0-1.7 1.6 0.4 2.7 1 4.4 0.5 1.1-0.3 1.6 2.8 1.7 3.5 0.5 2.7 1.7 5.2 2 7.9 0.1 1.2 0.7 2.2 1 3.3 0.4 1.2 5.3 5.8 6.4 4 0.9-1.4 1-4.7 0.8-6.3-0.2-1.3-1.2-2.6-2-3.6-1.4-0.2-3.3-3.3-4-4.3-1-1.4-2.7-3.4-3.1-5.1-0.2-1.1 0.5-1.7 1.1-2.5 0.5-0.8 0.9-2.1 1.9-2.5 0.6-0.2 5.4 6.5 6 7.3 1 1.4 1.7 3.1 3.3 4.1 0.9 0.5 3 0 3.9-0.1 1.4-0.2 3.1-0.4 4.2-1.3 0.1-0.5 0.1-0.9-0.2-1.3-1.1-1.7-2.6-6-4.9-6.2-3.6-0.3-6.8-2-10-3.7-0.6-0.3-1.4-0.7-1.9-1.2 0 0 2.2-0.2 2.6-0.2 0.9 0.1 1.8 0.2 2.7 0.3 1.6 0.2 3.3 0.4 4.8 0.9 1.3 0.4 2.2 0.7 3.5 0.2 1.5-0.5 2.9-1.2 4.5-1.5 1.3-0.3 4.7-0.1 4.1-2.4-0.3-1.3-3.1-2.6-4.2-3.4-3.6-2.6-6.8-1.3-10.7-0.3-2.3 0.6-4.9 1.9-7.2 2.1-0.9 0-0.6 0.2-1.2-0.6-0.4-0.5-0.7-1.3-0.9-1.8-0.4-1.1-0.7-2.5 0.8-2.7 2.9-0.4 6-1.7 8.9-2.5 0.7-0.2 1.4-0.5 2-0.6 2.3-0.5 3.3-3.6 4.3-5.5 0.7-1.2 2.3-2.9 0.4-3.9-1.8-1-5.4 0.1-7.3 0.5-0.8 0.2-1.5 0.7-2.2 1-1.6 0.8-3.2 2.8-4.5 4-1.6 1.4-3.2 2.8-4.2 4.7-0.1 0.2-0.3 0.2-0.5 0.4-0.2-0.3-0.3-0.5-0.4-0.6-1.3-1.5-1.4-1.9-0.2-2.9 0 0 0-0.1 0.1-0.2 1.5-2 2.9-4.2 4.9-5.8 1.2-1 2.6-1.9 4-2.7 1-0.6 3-1.2 3.4-2.4 0.4-1.4 1.3-5 0.1-6.1-0.9-0.8-2.6-0.5-3.7-0.5-1.8-0.2-4.5-0.6-5.5 1.1-2.2 4.2-3.3 9.1-5.1 13.4-0.2 0.6-0.5 1.2-0.7 1.8-0.8-0.3-1.4-0.8-1.9-1.4 0-0.4 0.1-0.8 0.1-1.2 0.4-2.7 0.8-5.4 1.6-8.1 0.6-2.3 1.9-4.4 2.5-6.7 0.4-1.3-2.3-4.1-2.9-5.2-0.8-1.6-2-0.8-3 0.1-1.3 1.2-2.6 2.3-3.9 3.3-0.9 0.7-1.1 1.3-0.8 2.4 1.4 4.3 2.4 8.8 3.9 13.1 0.1 0.3 0.3 0.8-0.2 1.1-1.3-0.5-2.6-0.4-4-0.2-1 0.1-0.9 0-1.4-1-0.7-2.1-1.6-4.2-2.2-6.5-0.5-1.7-0.3-4.8-1.3-6.2-0.2-0.3-0.3-0.6-0.5-0.9-0.6-0.2-1.3-0.5-2.2-0.7v11.4c1.9 1.5 4.2 3.2 4.7 5.4 0.2 0.9-1.1 2.5-1.7 3-0.7 0.6-0.3 0.8-1.3 0.2-0.6-0.4-1.1-0.8-1.7-1.2v4c0.5 0.2 1.1 0.5 1.6 0.7 1.4 0.8 1.9 2.1 0 2.2-0.5 0-1 0-1.6-0.1v3.2c0.7-0.1 1.3-0.2 2-0.2 0.6 0 1.1 0 1.6 0.2 0.6 0.9 0.7 2 1.3 2.8 0 0.1 0.1 0.1 0.1 0.2s0.1 0.4-0.3 0.4c-1.6 0.1-3.1 0.2-4.7 0.2v5c1.6-0.9 3.3-1.8 4.9-2.6 0.5-0.3 1.2-0.6 1.8-0.2 0.3 0.6 0.6 1.1 0.9 1.6 0.4 0.8-4.5 5.2-5.1 5.7-0.8 0.7-1.7 1.3-2.5 2v11.9c0.8-0.3 1.6-0.6 2.3-1 0.1 0.1 0.2 0 0.3 0zm4.6-29.2c-0.2-0.3-0.2-0.8-0.4-1.1-0.2-0.4-0.1-0.8-0.2-1.2s-0.1-0.8-0.1-1.1c-0.2-0.8 0.2-1.6 0.4-2.4 0.1-0.2 0.4-0.4 0.6-0.6 0.9-0.8 2-0.7 3.1-0.5 1.6 0.2 2.7 1.2 3.7 2.3 0.9 0.9 1.7 1.9 2.2 3.1 0.4 0.9 1.1 1.6 1.6 2.4 0.3 0.5 0.3 1 0.6 1.5 0.3 0.4 0.3 1 0.4 1.5s0.2 0.9 0.3 1.4c0.1 0.8-0.2 1.6-0.3 2.4-0.1 0.7-0.4 1.4-0.6 2.1-0.2 0.9-0.8 1.6-1.5 2.3-0.2 0.2-1.2 0.2-1.4 0-1.1-0.6-1.9-1.5-2.8-2.3-0.4-0.4-0.8-0.9-1.1-1.4l-1.8-3.3c-0.6-0.7-0.9-1.5-1.4-2.2-0.6-0.9-0.8-2-1.3-2.9z" fill="#B2A17A"/>
<path d="m397.4 67.1c-0.6 0.6-1 1.2-1.3 1.8-0.3 0.8-0.4 1.7-0.4 2.9 0 1.6-0.1 3.6 0.5 5.1 0.2 0.5 0.8 1 1.3 0.8 0.8-0.4 1.6-0.7 2.5-1v-11.9c-0.9 0.7-1.8 1.4-2.6 2.3z" fill="#B2A17A"/>
<path d="m396.3 20.3c-0.1 0-0.1 0.1-0.2 0.1v0.2c-1.4 1-2.9 5.4-1.3 6.6 1.2 0.9 2.2 2.4 3.4 3.5 0.5 0.5 1.2 1 1.8 1.5v-11.4c-1.4-0.5-3.1-0.9-3.7-0.5z" fill="#B2A17A"/>
<path d="m390.8 53.6c-1.6-0.4-2.9 1.9-3.7 2.9-1.1 1.2-4.3 4.1-1.9 5.3 1.9 1 4.3 0.4 6.4 0.5 0.9 0.1 1.7 0.1 2.6-0.5 1.9-1.3 3.9-2.5 6-3.6v-5c-1.2 0-2.5 0.1-3.7 0.2-1.9 0.1-4 0.7-5.7 0.2z" fill="#B2A17A"/>
<path d="m389.3 33.8c-1.3-0.1-4.5-0.8-5.2 0.9 0 0.1-0.1 0.3-0.1 0.3-0.1 0.3 1.5 3 1.8 3.4 0.6 1.1 1.5 2 2.7 2.3 2.2-0.7 4.8 0.5 6.8 1.2 1.5 0.5 3.1 1 4.6 1.6v-4c-1.7-1.3-3.4-2.8-4.9-4.2-1.6-1.6-3.4-1.4-5.7-1.5z" fill="#B2A17A"/>
<path d="m387.6 44.1c-0.5-0.1-0.9 0-1.2 0.2-2.2 1.3-4.6 2.4-5.9 4.7-0.2 0.3-0.2 1.3 0 1.4 1.5 1.3 3.7 3.2 5.9 3 1.7-0.2 3.5-1.2 5.1-1.7 2.8-0.9 5.6-1.7 8.5-2.1v-3.2c-1.5-0.2-3-0.7-4.5-1-2.6-0.4-5.2-0.8-7.9-1.3z" fill="#B2A17A"/>
</svg>
